<svg width="49" height="10" viewBox="0 0 49 10" fill="none" xmlns="http://www.w3.org/2000/svg">
<mask id="path-1-outside-1_57_11" maskUnits="userSpaceOnUse" x="-0.800003" y="-0.799988" width="50" height="11" fill="black">
<rect fill="white" x="-0.800003" y="-0.799988" width="50" height="11"/>
<path d="M7.56363 3.0466H6.50682C6.44432 2.74263 6.33494 2.47558 6.17869 2.24547C6.02528 2.01535 5.83778 1.82217 5.61619 1.66592C5.39744 1.50683 5.15454 1.38751 4.8875 1.30797C4.62045 1.22842 4.34204 1.18865 4.05227 1.18865C3.52386 1.18865 3.04517 1.32217 2.61619 1.58922C2.19005 1.85626 1.85057 2.24973 1.59772 2.76961C1.34772 3.2895 1.22272 3.92729 1.22272 4.68297C1.22272 5.43865 1.34772 6.07643 1.59772 6.59632C1.85057 7.11621 2.19005 7.50967 2.61619 7.77672C3.04517 8.04376 3.52386 8.17729 4.05227 8.17729C4.34204 8.17729 4.62045 8.13751 4.8875 8.05797C5.15454 7.97842 5.39744 7.86052 5.61619 7.70427C5.83778 7.54518 6.02528 7.35058 6.17869 7.12047C6.33494 6.88751 6.44432 6.62047 6.50682 6.31933H7.56363C7.48409 6.76535 7.3392 7.1645 7.12897 7.51677C6.91875 7.86905 6.65738 8.16876 6.34488 8.41592C6.03238 8.66024 5.68153 8.84632 5.29233 8.97416C4.90596 9.102 4.49261 9.16592 4.05227 9.16592C3.30795 9.16592 2.64602 8.9841 2.06647 8.62047C1.48693 8.25683 1.03096 7.73979 0.698577 7.06933C0.36619 6.39888 0.199997 5.60342 0.199997 4.68297C0.199997 3.76251 0.36619 2.96706 0.698577 2.2966C1.03096 1.62615 1.48693 1.1091 2.06647 0.745467C2.64602 0.38183 3.30795 0.200012 4.05227 0.200012C4.49261 0.200012 4.90596 0.263933 5.29233 0.391774C5.68153 0.519615 6.03238 0.707115 6.34488 0.954274C6.65738 1.19859 6.91875 1.49689 7.12897 1.84916C7.3392 2.19859 7.48409 2.59774 7.56363 3.0466Z"/>
<path d="M15.635 4.68297C15.635 5.60342 15.4688 6.39888 15.1364 7.06933C14.804 7.73979 14.3481 8.25683 13.7685 8.62047C13.189 8.9841 12.5271 9.16592 11.7827 9.16592C11.0384 9.16592 10.3765 8.9841 9.79694 8.62047C9.2174 8.25683 8.76143 7.73979 8.42905 7.06933C8.09666 6.39888 7.93047 5.60342 7.93047 4.68297C7.93047 3.76251 8.09666 2.96706 8.42905 2.2966C8.76143 1.62615 9.2174 1.1091 9.79694 0.745467C10.3765 0.38183 11.0384 0.200012 11.7827 0.200012C12.5271 0.200012 13.189 0.38183 13.7685 0.745467C14.3481 1.1091 14.804 1.62615 15.1364 2.2966C15.4688 2.96706 15.635 3.76251 15.635 4.68297ZM14.6123 4.68297C14.6123 3.92729 14.4859 3.2895 14.233 2.76961C13.983 2.24973 13.6435 1.85626 13.2146 1.58922C12.7884 1.32217 12.3111 1.18865 11.7827 1.18865C11.2543 1.18865 10.7756 1.32217 10.3467 1.58922C9.92052 1.85626 9.58103 2.24973 9.32819 2.76961C9.07819 3.2895 8.95319 3.92729 8.95319 4.68297C8.95319 5.43865 9.07819 6.07643 9.32819 6.59632C9.58103 7.11621 9.92052 7.50967 10.3467 7.77672C10.7756 8.04376 11.2543 8.17729 11.7827 8.17729C12.3111 8.17729 12.7884 8.04376 13.2146 7.77672C13.6435 7.50967 13.983 7.11621 14.233 6.59632C14.4859 6.07643 14.6123 5.43865 14.6123 4.68297Z"/>
<path d="M19.1052 9.0466H16.412V0.31933H19.2245C20.0711 0.31933 20.7955 0.494046 21.3978 0.843478C22.0001 1.19007 22.4617 1.68865 22.7827 2.33922C23.1038 2.98694 23.2643 3.76251 23.2643 4.66592C23.2643 5.57501 23.1023 6.35768 22.7785 7.01393C22.4546 7.66734 21.983 8.17018 21.3637 8.52246C20.7444 8.87189 19.9915 9.0466 19.1052 9.0466ZM17.4688 8.1091H19.037C19.7586 8.1091 20.3566 7.9699 20.831 7.69149C21.3055 7.41308 21.6592 7.01677 21.8921 6.50257C22.1251 5.98836 22.2415 5.37615 22.2415 4.66592C22.2415 3.96138 22.1265 3.35484 21.8964 2.84632C21.6663 2.33496 21.3225 1.94291 20.8651 1.67018C20.4077 1.39461 19.8381 1.25683 19.1563 1.25683H17.4688V8.1091Z"/>
<path d="M25.0938 0.31933V9.0466H24.037V0.31933H25.0938Z"/>
<path d="M33.1332 0.31933V9.0466H32.1105L27.3548 2.19433H27.2696V9.0466H26.2128V0.31933H27.2355L32.0082 7.18865H32.0935V0.31933H33.1332Z"/>
<path d="M40.2138 3.0466C40.1201 2.75967 39.9965 2.50257 39.8431 2.2753C39.6925 2.04518 39.5121 1.84916 39.3019 1.68723C39.0945 1.5253 38.8587 1.40172 38.5945 1.31649C38.3303 1.23126 38.0406 1.18865 37.7252 1.18865C37.2082 1.18865 36.738 1.32217 36.3147 1.58922C35.8914 1.85626 35.5548 2.24973 35.3048 2.76961C35.0548 3.2895 34.9298 3.92729 34.9298 4.68297C34.9298 5.43865 35.0562 6.07643 35.309 6.59632C35.5619 7.11621 35.9042 7.50967 36.336 7.77672C36.7678 8.04376 37.2536 8.17729 37.7934 8.17729C38.2934 8.17729 38.7337 8.07075 39.1144 7.85768C39.4979 7.64177 39.7962 7.3378 40.0093 6.94575C40.2252 6.55086 40.3332 6.08638 40.3332 5.55229L40.657 5.62047H38.032V4.68297H41.3559V5.62047C41.3559 6.33922 41.2025 6.96422 40.8957 7.49547C40.5917 8.02672 40.1712 8.43865 39.6343 8.73126C39.1002 9.02104 38.4866 9.16592 37.7934 9.16592C37.0207 9.16592 36.3417 8.9841 35.7565 8.62047C35.1741 8.25683 34.7195 7.73979 34.3928 7.06933C34.069 6.39888 33.907 5.60342 33.907 4.68297C33.907 3.99263 33.9994 3.37189 34.184 2.82075C34.3715 2.26677 34.6357 1.79518 34.9766 1.40598C35.3175 1.01677 35.721 0.718478 36.1869 0.511092C36.6528 0.303705 37.1656 0.200012 37.7252 0.200012C38.1854 0.200012 38.6144 0.269614 39.0121 0.408819C39.4127 0.545182 39.7692 0.739785 40.0817 0.992626C40.3971 1.24263 40.6599 1.54234 40.8701 1.89177C41.0803 2.23836 41.2252 2.62331 41.3048 3.0466H40.2138Z"/>
<path d="M45.2341 9.16592C44.8761 9.16024 44.5182 9.09206 44.1602 8.96138C43.8023 8.8307 43.4756 8.61053 43.1801 8.30087C42.8847 7.98837 42.6474 7.56649 42.4685 7.03524C42.2895 6.50115 42.2 5.8307 42.2 5.02388C42.2 4.25115 42.2724 3.56649 42.4173 2.9699C42.5622 2.37047 42.7724 1.86621 43.048 1.45712C43.3236 1.04518 43.656 0.732683 44.0452 0.519614C44.4372 0.306546 44.879 0.200012 45.3705 0.200012C45.8591 0.200012 46.2938 0.298024 46.6744 0.494047C47.058 0.687228 47.3705 0.957115 47.6119 1.30371C47.8534 1.6503 48.0097 2.04944 48.0807 2.50115H47.0409C46.9443 2.1091 46.7568 1.78382 46.4784 1.5253C46.2 1.26677 45.8307 1.13751 45.3705 1.13751C44.6943 1.13751 44.1616 1.43155 43.7724 2.01962C43.3861 2.60768 43.1915 3.43297 43.1886 4.49547H43.2568C43.4159 4.25399 43.6048 4.04802 43.8236 3.87757C44.0452 3.70427 44.2895 3.57075 44.5565 3.477C44.8236 3.38325 45.1062 3.33638 45.4045 3.33638C45.9045 3.33638 46.3619 3.46138 46.7767 3.71138C47.1915 3.95854 47.5239 4.30087 47.7739 4.73837C48.0239 5.17302 48.1489 5.6716 48.1489 6.2341C48.1489 6.77388 48.0281 7.2682 47.7866 7.71706C47.5452 8.16308 47.2057 8.5182 46.7682 8.7824C46.3335 9.04376 45.8222 9.1716 45.2341 9.16592ZM45.2341 8.22842C45.592 8.22842 45.9131 8.13893 46.1972 7.95996C46.4841 7.78098 46.7099 7.54092 46.8747 7.23979C47.0423 6.93865 47.1261 6.60342 47.1261 6.2341C47.1261 5.87331 47.0452 5.54518 46.8832 5.24973C46.7241 4.95143 46.504 4.71422 46.2227 4.53808C45.9443 4.36194 45.6261 4.27388 45.2682 4.27388C44.9983 4.27388 44.7469 4.32785 44.5139 4.43581C44.281 4.54092 44.0764 4.68581 43.9003 4.87047C43.727 5.05513 43.5906 5.26677 43.4912 5.50541C43.3918 5.74121 43.342 5.98979 43.342 6.25115C43.342 6.59774 43.423 6.9216 43.5849 7.22274C43.7497 7.52388 43.9741 7.76677 44.2582 7.95143C44.5452 8.13609 44.8705 8.22842 45.2341 8.22842Z"/>
</mask>
<path d="M7.56363 3.0466H6.50682C6.44432 2.74263 6.33494 2.47558 6.17869 2.24547C6.02528 2.01535 5.83778 1.82217 5.61619 1.66592C5.39744 1.50683 5.15454 1.38751 4.8875 1.30797C4.62045 1.22842 4.34204 1.18865 4.05227 1.18865C3.52386 1.18865 3.04517 1.32217 2.61619 1.58922C2.19005 1.85626 1.85057 2.24973 1.59772 2.76961C1.34772 3.2895 1.22272 3.92729 1.22272 4.68297C1.22272 5.43865 1.34772 6.07643 1.59772 6.59632C1.85057 7.11621 2.19005 7.50967 2.61619 7.77672C3.04517 8.04376 3.52386 8.17729 4.05227 8.17729C4.34204 8.17729 4.62045 8.13751 4.8875 8.05797C5.15454 7.97842 5.39744 7.86052 5.61619 7.70427C5.83778 7.54518 6.02528 7.35058 6.17869 7.12047C6.33494 6.88751 6.44432 6.62047 6.50682 6.31933H7.56363C7.48409 6.76535 7.3392 7.1645 7.12897 7.51677C6.91875 7.86905 6.65738 8.16876 6.34488 8.41592C6.03238 8.66024 5.68153 8.84632 5.29233 8.97416C4.90596 9.102 4.49261 9.16592 4.05227 9.16592C3.30795 9.16592 2.64602 8.9841 2.06647 8.62047C1.48693 8.25683 1.03096 7.73979 0.698577 7.06933C0.36619 6.39888 0.199997 5.60342 0.199997 4.68297C0.199997 3.76251 0.36619 2.96706 0.698577 2.2966C1.03096 1.62615 1.48693 1.1091 2.06647 0.745467C2.64602 0.38183 3.30795 0.200012 4.05227 0.200012C4.49261 0.200012 4.90596 0.263933 5.29233 0.391774C5.68153 0.519615 6.03238 0.707115 6.34488 0.954274C6.65738 1.19859 6.91875 1.49689 7.12897 1.84916C7.3392 2.19859 7.48409 2.59774 7.56363 3.0466Z" fill="white"/>
<path d="M15.635 4.68297C15.635 5.60342 15.4688 6.39888 15.1364 7.06933C14.804 7.73979 14.3481 8.25683 13.7685 8.62047C13.189 8.9841 12.5271 9.16592 11.7827 9.16592C11.0384 9.16592 10.3765 8.9841 9.79694 8.62047C9.2174 8.25683 8.76143 7.73979 8.42905 7.06933C8.09666 6.39888 7.93047 5.60342 7.93047 4.68297C7.93047 3.76251 8.09666 2.96706 8.42905 2.2966C8.76143 1.62615 9.2174 1.1091 9.79694 0.745467C10.3765 0.38183 11.0384 0.200012 11.7827 0.200012C12.5271 0.200012 13.189 0.38183 13.7685 0.745467C14.3481 1.1091 14.804 1.62615 15.1364 2.2966C15.4688 2.96706 15.635 3.76251 15.635 4.68297ZM14.6123 4.68297C14.6123 3.92729 14.4859 3.2895 14.233 2.76961C13.983 2.24973 13.6435 1.85626 13.2146 1.58922C12.7884 1.32217 12.3111 1.18865 11.7827 1.18865C11.2543 1.18865 10.7756 1.32217 10.3467 1.58922C9.92052 1.85626 9.58103 2.24973 9.32819 2.76961C9.07819 3.2895 8.95319 3.92729 8.95319 4.68297C8.95319 5.43865 9.07819 6.07643 9.32819 6.59632C9.58103 7.11621 9.92052 7.50967 10.3467 7.77672C10.7756 8.04376 11.2543 8.17729 11.7827 8.17729C12.3111 8.17729 12.7884 8.04376 13.2146 7.77672C13.6435 7.50967 13.983 7.11621 14.233 6.59632C14.4859 6.07643 14.6123 5.43865 14.6123 4.68297Z" fill="white"/>
<path d="M19.1052 9.0466H16.412V0.31933H19.2245C20.0711 0.31933 20.7955 0.494046 21.3978 0.843478C22.0001 1.19007 22.4617 1.68865 22.7827 2.33922C23.1038 2.98694 23.2643 3.76251 23.2643 4.66592C23.2643 5.57501 23.1023 6.35768 22.7785 7.01393C22.4546 7.66734 21.983 8.17018 21.3637 8.52246C20.7444 8.87189 19.9915 9.0466 19.1052 9.0466ZM17.4688 8.1091H19.037C19.7586 8.1091 20.3566 7.9699 20.831 7.69149C21.3055 7.41308 21.6592 7.01677 21.8921 6.50257C22.1251 5.98836 22.2415 5.37615 22.2415 4.66592C22.2415 3.96138 22.1265 3.35484 21.8964 2.84632C21.6663 2.33496 21.3225 1.94291 20.8651 1.67018C20.4077 1.39461 19.8381 1.25683 19.1563 1.25683H17.4688V8.1091Z" fill="white"/>
<path d="M25.0938 0.31933V9.0466H24.037V0.31933H25.0938Z" fill="white"/>
<path d="M33.1332 0.31933V9.0466H32.1105L27.3548 2.19433H27.2696V9.0466H26.2128V0.31933H27.2355L32.0082 7.18865H32.0935V0.31933H33.1332Z" fill="white"/>
<path d="M40.2138 3.0466C40.1201 2.75967 39.9965 2.50257 39.8431 2.2753C39.6925 2.04518 39.5121 1.84916 39.3019 1.68723C39.0945 1.5253 38.8587 1.40172 38.5945 1.31649C38.3303 1.23126 38.0406 1.18865 37.7252 1.18865C37.2082 1.18865 36.738 1.32217 36.3147 1.58922C35.8914 1.85626 35.5548 2.24973 35.3048 2.76961C35.0548 3.2895 34.9298 3.92729 34.9298 4.68297C34.9298 5.43865 35.0562 6.07643 35.309 6.59632C35.5619 7.11621 35.9042 7.50967 36.336 7.77672C36.7678 8.04376 37.2536 8.17729 37.7934 8.17729C38.2934 8.17729 38.7337 8.07075 39.1144 7.85768C39.4979 7.64177 39.7962 7.3378 40.0093 6.94575C40.2252 6.55086 40.3332 6.08638 40.3332 5.55229L40.657 5.62047H38.032V4.68297H41.3559V5.62047C41.3559 6.33922 41.2025 6.96422 40.8957 7.49547C40.5917 8.02672 40.1712 8.43865 39.6343 8.73126C39.1002 9.02104 38.4866 9.16592 37.7934 9.16592C37.0207 9.16592 36.3417 8.9841 35.7565 8.62047C35.1741 8.25683 34.7195 7.73979 34.3928 7.06933C34.069 6.39888 33.907 5.60342 33.907 4.68297C33.907 3.99263 33.9994 3.37189 34.184 2.82075C34.3715 2.26677 34.6357 1.79518 34.9766 1.40598C35.3175 1.01677 35.721 0.718478 36.1869 0.511092C36.6528 0.303705 37.1656 0.200012 37.7252 0.200012C38.1854 0.200012 38.6144 0.269614 39.0121 0.408819C39.4127 0.545182 39.7692 0.739785 40.0817 0.992626C40.3971 1.24263 40.6599 1.54234 40.8701 1.89177C41.0803 2.23836 41.2252 2.62331 41.3048 3.0466H40.2138Z" fill="white"/>
<path d="M45.2341 9.16592C44.8761 9.16024 44.5182 9.09206 44.1602 8.96138C43.8023 8.8307 43.4756 8.61053 43.1801 8.30087C42.8847 7.98837 42.6474 7.56649 42.4685 7.03524C42.2895 6.50115 42.2 5.8307 42.2 5.02388C42.2 4.25115 42.2724 3.56649 42.4173 2.9699C42.5622 2.37047 42.7724 1.86621 43.048 1.45712C43.3236 1.04518 43.656 0.732683 44.0452 0.519614C44.4372 0.306546 44.879 0.200012 45.3705 0.200012C45.8591 0.200012 46.2938 0.298024 46.6744 0.494047C47.058 0.687228 47.3705 0.957115 47.6119 1.30371C47.8534 1.6503 48.0097 2.04944 48.0807 2.50115H47.0409C46.9443 2.1091 46.7568 1.78382 46.4784 1.5253C46.2 1.26677 45.8307 1.13751 45.3705 1.13751C44.6943 1.13751 44.1616 1.43155 43.7724 2.01962C43.3861 2.60768 43.1915 3.43297 43.1886 4.49547H43.2568C43.4159 4.25399 43.6048 4.04802 43.8236 3.87757C44.0452 3.70427 44.2895 3.57075 44.5565 3.477C44.8236 3.38325 45.1062 3.33638 45.4045 3.33638C45.9045 3.33638 46.3619 3.46138 46.7767 3.71138C47.1915 3.95854 47.5239 4.30087 47.7739 4.73837C48.0239 5.17302 48.1489 5.6716 48.1489 6.2341C48.1489 6.77388 48.0281 7.2682 47.7866 7.71706C47.5452 8.16308 47.2057 8.5182 46.7682 8.7824C46.3335 9.04376 45.8222 9.1716 45.2341 9.16592ZM45.2341 8.22842C45.592 8.22842 45.9131 8.13893 46.1972 7.95996C46.4841 7.78098 46.7099 7.54092 46.8747 7.23979C47.0423 6.93865 47.1261 6.60342 47.1261 6.2341C47.1261 5.87331 47.0452 5.54518 46.8832 5.24973C46.7241 4.95143 46.504 4.71422 46.2227 4.53808C45.9443 4.36194 45.6261 4.27388 45.2682 4.27388C44.9983 4.27388 44.7469 4.32785 44.5139 4.43581C44.281 4.54092 44.0764 4.68581 43.9003 4.87047C43.727 5.05513 43.5906 5.26677 43.4912 5.50541C43.3918 5.74121 43.342 5.98979 43.342 6.25115C43.342 6.59774 43.423 6.9216 43.5849 7.22274C43.7497 7.52388 43.9741 7.76677 44.2582 7.95143C44.5452 8.13609 44.8705 8.22842 45.2341 8.22842Z" fill="black"/>
<path d="M7.56363 3.0466H6.50682C6.44432 2.74263 6.33494 2.47558 6.17869 2.24547C6.02528 2.01535 5.83778 1.82217 5.61619 1.66592C5.39744 1.50683 5.15454 1.38751 4.8875 1.30797C4.62045 1.22842 4.34204 1.18865 4.05227 1.18865C3.52386 1.18865 3.04517 1.32217 2.61619 1.58922C2.19005 1.85626 1.85057 2.24973 1.59772 2.76961C1.34772 3.2895 1.22272 3.92729 1.22272 4.68297C1.22272 5.43865 1.34772 6.07643 1.59772 6.59632C1.85057 7.11621 2.19005 7.50967 2.61619 7.77672C3.04517 8.04376 3.52386 8.17729 4.05227 8.17729C4.34204 8.17729 4.62045 8.13751 4.8875 8.05797C5.15454 7.97842 5.39744 7.86052 5.61619 7.70427C5.83778 7.54518 6.02528 7.35058 6.17869 7.12047C6.33494 6.88751 6.44432 6.62047 6.50682 6.31933H7.56363C7.48409 6.76535 7.3392 7.1645 7.12897 7.51677C6.91875 7.86905 6.65738 8.16876 6.34488 8.41592C6.03238 8.66024 5.68153 8.84632 5.29233 8.97416C4.90596 9.102 4.49261 9.16592 4.05227 9.16592C3.30795 9.16592 2.64602 8.9841 2.06647 8.62047C1.48693 8.25683 1.03096 7.73979 0.698577 7.06933C0.36619 6.39888 0.199997 5.60342 0.199997 4.68297C0.199997 3.76251 0.36619 2.96706 0.698577 2.2966C1.03096 1.62615 1.48693 1.1091 2.06647 0.745467C2.64602 0.38183 3.30795 0.200012 4.05227 0.200012C4.49261 0.200012 4.90596 0.263933 5.29233 0.391774C5.68153 0.519615 6.03238 0.707115 6.34488 0.954274C6.65738 1.19859 6.91875 1.49689 7.12897 1.84916C7.3392 2.19859 7.48409 2.59774 7.56363 3.0466Z" stroke="black" stroke-width="0.4" mask="url(#path-1-outside-1_57_11)"/>
<path d="M15.635 4.68297C15.635 5.60342 15.4688 6.39888 15.1364 7.06933C14.804 7.73979 14.3481 8.25683 13.7685 8.62047C13.189 8.9841 12.5271 9.16592 11.7827 9.16592C11.0384 9.16592 10.3765 8.9841 9.79694 8.62047C9.2174 8.25683 8.76143 7.73979 8.42905 7.06933C8.09666 6.39888 7.93047 5.60342 7.93047 4.68297C7.93047 3.76251 8.09666 2.96706 8.42905 2.2966C8.76143 1.62615 9.2174 1.1091 9.79694 0.745467C10.3765 0.38183 11.0384 0.200012 11.7827 0.200012C12.5271 0.200012 13.189 0.38183 13.7685 0.745467C14.3481 1.1091 14.804 1.62615 15.1364 2.2966C15.4688 2.96706 15.635 3.76251 15.635 4.68297ZM14.6123 4.68297C14.6123 3.92729 14.4859 3.2895 14.233 2.76961C13.983 2.24973 13.6435 1.85626 13.2146 1.58922C12.7884 1.32217 12.3111 1.18865 11.7827 1.18865C11.2543 1.18865 10.7756 1.32217 10.3467 1.58922C9.92052 1.85626 9.58103 2.24973 9.32819 2.76961C9.07819 3.2895 8.95319 3.92729 8.95319 4.68297C8.95319 5.43865 9.07819 6.07643 9.32819 6.59632C9.58103 7.11621 9.92052 7.50967 10.3467 7.77672C10.7756 8.04376 11.2543 8.17729 11.7827 8.17729C12.3111 8.17729 12.7884 8.04376 13.2146 7.77672C13.6435 7.50967 13.983 7.11621 14.233 6.59632C14.4859 6.07643 14.6123 5.43865 14.6123 4.68297Z" stroke="black" stroke-width="0.4" mask="url(#path-1-outside-1_57_11)"/>
<path d="M19.1052 9.0466H16.412V0.31933H19.2245C20.0711 0.31933 20.7955 0.494046 21.3978 0.843478C22.0001 1.19007 22.4617 1.68865 22.7827 2.33922C23.1038 2.98694 23.2643 3.76251 23.2643 4.66592C23.2643 5.57501 23.1023 6.35768 22.7785 7.01393C22.4546 7.66734 21.983 8.17018 21.3637 8.52246C20.7444 8.87189 19.9915 9.0466 19.1052 9.0466ZM17.4688 8.1091H19.037C19.7586 8.1091 20.3566 7.9699 20.831 7.69149C21.3055 7.41308 21.6592 7.01677 21.8921 6.50257C22.1251 5.98836 22.2415 5.37615 22.2415 4.66592C22.2415 3.96138 22.1265 3.35484 21.8964 2.84632C21.6663 2.33496 21.3225 1.94291 20.8651 1.67018C20.4077 1.39461 19.8381 1.25683 19.1563 1.25683H17.4688V8.1091Z" stroke="black" stroke-width="0.4" mask="url(#path-1-outside-1_57_11)"/>
<path d="M25.0938 0.31933V9.0466H24.037V0.31933H25.0938Z" stroke="black" stroke-width="0.4" mask="url(#path-1-outside-1_57_11)"/>
<path d="M33.1332 0.31933V9.0466H32.1105L27.3548 2.19433H27.2696V9.0466H26.2128V0.31933H27.2355L32.0082 7.18865H32.0935V0.31933H33.1332Z" stroke="black" stroke-width="0.4" mask="url(#path-1-outside-1_57_11)"/>
<path d="M40.2138 3.0466C40.1201 2.75967 39.9965 2.50257 39.8431 2.2753C39.6925 2.04518 39.5121 1.84916 39.3019 1.68723C39.0945 1.5253 38.8587 1.40172 38.5945 1.31649C38.3303 1.23126 38.0406 1.18865 37.7252 1.18865C37.2082 1.18865 36.738 1.32217 36.3147 1.58922C35.8914 1.85626 35.5548 2.24973 35.3048 2.76961C35.0548 3.2895 34.9298 3.92729 34.9298 4.68297C34.9298 5.43865 35.0562 6.07643 35.309 6.59632C35.5619 7.11621 35.9042 7.50967 36.336 7.77672C36.7678 8.04376 37.2536 8.17729 37.7934 8.17729C38.2934 8.17729 38.7337 8.07075 39.1144 7.85768C39.4979 7.64177 39.7962 7.3378 40.0093 6.94575C40.2252 6.55086 40.3332 6.08638 40.3332 5.55229L40.657 5.62047H38.032V4.68297H41.3559V5.62047C41.3559 6.33922 41.2025 6.96422 40.8957 7.49547C40.5917 8.02672 40.1712 8.43865 39.6343 8.73126C39.1002 9.02104 38.4866 9.16592 37.7934 9.16592C37.0207 9.16592 36.3417 8.9841 35.7565 8.62047C35.1741 8.25683 34.7195 7.73979 34.3928 7.06933C34.069 6.39888 33.907 5.60342 33.907 4.68297C33.907 3.99263 33.9994 3.37189 34.184 2.82075C34.3715 2.26677 34.6357 1.79518 34.9766 1.40598C35.3175 1.01677 35.721 0.718478 36.1869 0.511092C36.6528 0.303705 37.1656 0.200012 37.7252 0.200012C38.1854 0.200012 38.6144 0.269614 39.0121 0.408819C39.4127 0.545182 39.7692 0.739785 40.0817 0.992626C40.3971 1.24263 40.6599 1.54234 40.8701 1.89177C41.0803 2.23836 41.2252 2.62331 41.3048 3.0466H40.2138Z" stroke="black" stroke-width="0.4" mask="url(#path-1-outside-1_57_11)"/>
<path d="M45.2341 9.16592C44.8761 9.16024 44.5182 9.09206 44.1602 8.96138C43.8023 8.8307 43.4756 8.61053 43.1801 8.30087C42.8847 7.98837 42.6474 7.56649 42.4685 7.03524C42.2895 6.50115 42.2 5.8307 42.2 5.02388C42.2 4.25115 42.2724 3.56649 42.4173 2.9699C42.5622 2.37047 42.7724 1.86621 43.048 1.45712C43.3236 1.04518 43.656 0.732683 44.0452 0.519614C44.4372 0.306546 44.879 0.200012 45.3705 0.200012C45.8591 0.200012 46.2938 0.298024 46.6744 0.494047C47.058 0.687228 47.3705 0.957115 47.6119 1.30371C47.8534 1.6503 48.0097 2.04944 48.0807 2.50115H47.0409C46.9443 2.1091 46.7568 1.78382 46.4784 1.5253C46.2 1.26677 45.8307 1.13751 45.3705 1.13751C44.6943 1.13751 44.1616 1.43155 43.7724 2.01962C43.3861 2.60768 43.1915 3.43297 43.1886 4.49547H43.2568C43.4159 4.25399 43.6048 4.04802 43.8236 3.87757C44.0452 3.70427 44.2895 3.57075 44.5565 3.477C44.8236 3.38325 45.1062 3.33638 45.4045 3.33638C45.9045 3.33638 46.3619 3.46138 46.7767 3.71138C47.1915 3.95854 47.5239 4.30087 47.7739 4.73837C48.0239 5.17302 48.1489 5.6716 48.1489 6.2341C48.1489 6.77388 48.0281 7.2682 47.7866 7.71706C47.5452 8.16308 47.2057 8.5182 46.7682 8.7824C46.3335 9.04376 45.8222 9.1716 45.2341 9.16592ZM45.2341 8.22842C45.592 8.22842 45.9131 8.13893 46.1972 7.95996C46.4841 7.78098 46.7099 7.54092 46.8747 7.23979C47.0423 6.93865 47.1261 6.60342 47.1261 6.2341C47.1261 5.87331 47.0452 5.54518 46.8832 5.24973C46.7241 4.95143 46.504 4.71422 46.2227 4.53808C45.9443 4.36194 45.6261 4.27388 45.2682 4.27388C44.9983 4.27388 44.7469 4.32785 44.5139 4.43581C44.281 4.54092 44.0764 4.68581 43.9003 4.87047C43.727 5.05513 43.5906 5.26677 43.4912 5.50541C43.3918 5.74121 43.342 5.98979 43.342 6.25115C43.342 6.59774 43.423 6.9216 43.5849 7.22274C43.7497 7.52388 43.9741 7.76677 44.2582 7.95143C44.5452 8.13609 44.8705 8.22842 45.2341 8.22842Z" stroke="black" stroke-width="0.4" mask="url(#path-1-outside-1_57_11)"/>
</svg>
